<svg width="29" height="29" viewBox="0 0 29 29" fill="none" xmlns="http://www.w3.org/2000/svg">
<path d="M13.45 14.35H14.35V13.45V10.15H14.65V13.45V14.35H15.55H18.85V14.65H15.55H14.65V15.55V18.85H14.35V15.55V14.65H13.45H10.15V14.35H13.45ZM14.5 24.1C9.19791 24.1 4.9 19.8021 4.9 14.5C4.9 9.19791 9.19791 4.9 14.5 4.9C19.8021 4.9 24.1 9.19791 24.1 14.5C24.1 19.8021 19.8021 24.1 14.5 24.1ZM14.5 23.8C16.9665 23.8 19.332 22.8202 21.0761 21.0761C22.8202 19.332 23.8 16.9665 23.8 14.5C23.8 12.0335 22.8202 9.66799 21.0761 7.92391C19.332 6.17982 16.9665 5.2 14.5 5.2C12.0335 5.2 9.66799 6.17982 7.92391 7.92391C6.17982 9.66799 5.2 12.0335 5.2 14.5C5.2 16.9665 6.17982 19.332 7.92391 21.0761C9.66799 22.8202 12.0335 23.8 14.5 23.8Z" fill="#99A0AE" stroke="#99A0AE" stroke-width="1.8"/>
</svg>
