<svg width="16" height="16" viewBox="0 0 16 16" fill="none" xmlns="http://www.w3.org/2000/svg">
<path d="M8.49364 2.62164L13.9236 12.1352C13.9737 12.2228 14 12.3223 14 12.4235C14 12.5247 13.9737 12.6241 13.9236 12.7117C13.8736 12.7994 13.8017 12.8722 13.715 12.9228C13.6283 12.9734 13.5301 13 13.43 13H2.57C2.46995 13 2.37165 12.9734 2.285 12.9228C2.19835 12.8722 2.12639 12.7994 2.07636 12.7117C2.02634 12.6241 2 12.5247 2 12.4235C2 12.3223 2.02634 12.2228 2.07637 12.1352L7.50636 2.62164C7.5564 2.53399 7.62835 2.46121 7.715 2.41061C7.80165 2.36001 7.89995 2.33337 8 2.33337C8.10005 2.33337 8.19835 2.36001 8.285 2.41061C8.37165 2.46121 8.4436 2.53399 8.49364 2.62164ZM7.42998 10.1172V11.2703H8.57002V10.1172H7.42998ZM7.42998 6.08111V8.964H8.57002V6.08111H7.42998Z" fill="#FF8447"/>
</svg>
