<svg width="24" height="24" viewBox="0 0 24 24" fill="none" xmlns="http://www.w3.org/2000/svg">
<path d="M3.89998 18.3V6.33002C3.89992 6.14527 3.95672 5.96498 4.06267 5.81363C4.16861 5.66228 4.31857 5.5472 4.49218 5.48402L13.1961 2.31962C13.2641 2.29487 13.337 2.28689 13.4088 2.29634C13.4805 2.30579 13.5489 2.33239 13.6081 2.3739C13.6674 2.41541 13.7158 2.4706 13.7492 2.53479C13.7826 2.59897 13.8 2.67026 13.8 2.74262V7.20032L19.4844 9.09482C19.6637 9.15453 19.8196 9.26916 19.9301 9.42246C20.0406 9.57576 20.1 9.75995 20.1 9.94892V18.3H21.9V20.1H2.09998V18.3H3.89998ZM5.69998 18.3H12V4.66952L5.69998 6.96092V18.3ZM18.3 18.3V10.5978L13.8 9.09752V18.3H18.3Z" fill="#99A0AE"/>
</svg>
