<svg width="24" height="24" viewBox="0 0 24 24" fill="none" xmlns="http://www.w3.org/2000/svg">
<path d="M16.5 15.6H18.3V4.8H9.30002V6.6H16.5V15.6ZM16.5 17.4V20.1C16.5 20.5968 16.095 21 15.5937 21H4.80632C4.68764 21.0007 4.56998 20.978 4.46011 20.9331C4.35025 20.8882 4.25033 20.822 4.16612 20.7384C4.0819 20.6547 4.01504 20.5553 3.96937 20.4457C3.92371 20.3362 3.90014 20.2187 3.90002 20.1L3.90272 7.5C3.90272 7.0032 4.30772 6.6 4.80902 6.6H7.50002V3.9C7.50002 3.66131 7.59485 3.43239 7.76363 3.2636C7.93241 3.09482 8.16133 3 8.40002 3H19.2C19.4387 3 19.6676 3.09482 19.8364 3.2636C20.0052 3.43239 20.1 3.66131 20.1 3.9V16.5C20.1 16.7387 20.0052 16.9676 19.8364 17.1364C19.6676 17.3052 19.4387 17.4 19.2 17.4H16.5ZM5.70272 8.4L5.70002 19.2H14.7V8.4H5.70272ZM7.50002 15.6H11.55C11.6694 15.6 11.7838 15.5526 11.8682 15.4682C11.9526 15.3838 12 15.2693 12 15.15C12 15.0307 11.9526 14.9162 11.8682 14.8318C11.7838 14.7474 11.6694 14.7 11.55 14.7H8.85002C8.25329 14.7 7.68099 14.4629 7.25903 14.041C6.83708 13.619 6.60002 13.0467 6.60002 12.45C6.60002 11.8533 6.83708 11.281 7.25903 10.859C7.68099 10.4371 8.25329 10.2 8.85002 10.2H9.30002V9.3H11.1V10.2H12.9V12H8.85002C8.73068 12 8.61622 12.0474 8.53183 12.1318C8.44743 12.2162 8.40002 12.3307 8.40002 12.45C8.40002 12.5693 8.44743 12.6838 8.53183 12.7682C8.61622 12.8526 8.73068 12.9 8.85002 12.9H11.55C12.1468 12.9 12.7191 13.1371 13.141 13.559C13.563 13.981 13.8 14.5533 13.8 15.15C13.8 15.7467 13.563 16.319 13.141 16.741C12.7191 17.1629 12.1468 17.4 11.55 17.4H11.1V18.3H9.30002V17.4H7.50002V15.6Z" fill="#525866"/>
</svg>
