<svg width="20" height="20" viewBox="0 0 20 20" fill="none" xmlns="http://www.w3.org/2000/svg">
<path d="M7.50033 0.833374V2.50004H12.5003V0.833374H14.167V2.50004H17.5003C17.9606 2.50004 18.3337 2.87314 18.3337 3.33337V16.6667C18.3337 17.127 17.9606 17.5 17.5003 17.5H2.50033C2.04009 17.5 1.66699 17.127 1.66699 16.6667V3.33337C1.66699 2.87314 2.04009 2.50004 2.50033 2.50004H5.83366V0.833374H7.50033ZM16.667 9.16671H3.33366V15.8334H16.667V9.16671ZM6.66699 10.8334V12.5H5.00033V10.8334H6.66699ZM10.8337 10.8334V12.5H9.16699V10.8334H10.8337ZM15.0003 10.8334V12.5H13.3337V10.8334H15.0003ZM5.83366 4.16671H3.33366V7.50004H16.667V4.16671H14.167V5.83337H12.5003V4.16671H7.50033V5.83337H5.83366V4.16671Z" fill="#99A0AE"/>
</svg>
