<svg width="25" height="24" viewBox="0 0 25 24" fill="none" xmlns="http://www.w3.org/2000/svg">
<path d="M17 6.6H21.5V8.4H19.7V20.1C19.7 20.3387 19.6052 20.5676 19.4364 20.7364C19.2676 20.9052 19.0387 21 18.8 21H6.2C5.96131 21 5.73239 20.9052 5.5636 20.7364C5.39482 20.5676 5.3 20.3387 5.3 20.1V8.4H3.5V6.6H8V3.9C8 3.66131 8.09482 3.43239 8.2636 3.2636C8.43239 3.09482 8.6613 3 8.9 3H16.1C16.3387 3 16.5676 3.09482 16.7364 3.2636C16.9052 3.43239 17 3.66131 17 3.9V6.6ZM17.9 8.4H7.1V19.2H17.9V8.4ZM13.7726 13.8L15.3638 15.3912L14.0912 16.6638L12.5 15.0726L10.9088 16.6638L9.6362 15.3912L11.2274 13.8L9.6362 12.2088L10.9088 10.9362L12.5 12.5274L14.0912 10.9362L15.3638 12.2088L13.7726 13.8ZM9.8 4.8V6.6H15.2V4.8H9.8Z" fill="#FB3748"/>
</svg>
