<svg width="24" height="24" viewBox="0 0 24 24" fill="none" xmlns="http://www.w3.org/2000/svg">
<path d="M12 3.89999C16.8528 3.89999 20.8902 7.39199 21.7371 12C20.8911 16.608 16.8528 20.1 12 20.1C7.14724 20.1 3.10984 16.608 2.26294 12C3.10894 7.39199 7.14724 3.89999 12 3.89999ZM12 18.3C13.8356 18.2996 15.6166 17.6761 17.0516 16.5316C18.4866 15.3872 19.4907 13.7894 19.8993 12C19.4892 10.212 18.4845 8.616 17.0496 7.47302C15.6147 6.33004 13.8345 5.70767 12 5.70767C10.1656 5.70767 8.38536 6.33004 6.95048 7.47302C5.5156 8.616 4.51093 10.212 4.10074 12C4.50943 13.7894 5.51345 15.3872 6.94847 16.5316C8.38349 17.6761 10.1645 18.2996 12 18.3ZM12 16.05C10.9259 16.05 9.89578 15.6233 9.13626 14.8638C8.37674 14.1043 7.95004 13.0741 7.95004 12C7.95004 10.9259 8.37674 9.89573 9.13626 9.13621C9.89578 8.37669 10.9259 7.94999 12 7.94999C13.0742 7.94999 14.1043 8.37669 14.8638 9.13621C15.6233 9.89573 16.05 10.9259 16.05 12C16.05 13.0741 15.6233 14.1043 14.8638 14.8638C14.1043 15.6233 13.0742 16.05 12 16.05ZM12 14.25C12.5968 14.25 13.1691 14.0129 13.591 13.591C14.013 13.169 14.25 12.5967 14.25 12C14.25 11.4033 14.013 10.831 13.591 10.409C13.1691 9.98705 12.5968 9.74999 12 9.74999C11.4033 9.74999 10.831 9.98705 10.409 10.409C9.98709 10.831 9.75004 11.4033 9.75004 12C9.75004 12.5967 9.98709 13.169 10.409 13.591C10.831 14.0129 11.4033 14.25 12 14.25Z" fill="#99A0AE"/>
</svg>
