<svg width="20" height="20" viewBox="0 0 20 20" fill="none" xmlns="http://www.w3.org/2000/svg">
<path d="M12.25 4H4.75V16H15.25V7H12.25V4ZM3.25 3.244C3.25 2.833 3.58525 2.5 3.99925 2.5H13L16.75 6.25V16.7448C16.7507 16.8432 16.732 16.9409 16.6949 17.0322C16.6579 17.1234 16.6032 17.2065 16.534 17.2766C16.4649 17.3468 16.3826 17.4026 16.2919 17.4409C16.2011 17.4792 16.1037 17.4993 16.0052 17.5H3.99475C3.79778 17.4986 3.60926 17.4198 3.46991 17.2806C3.33056 17.1414 3.25157 16.953 3.25 16.756V3.244ZM10 9.625C9.50272 9.625 9.02581 9.42746 8.67417 9.07583C8.32254 8.72419 8.125 8.24728 8.125 7.75C8.125 7.25272 8.32254 6.77581 8.67417 6.42417C9.02581 6.07254 9.50272 5.875 10 5.875C10.4973 5.875 10.9742 6.07254 11.3258 6.42417C11.6775 6.77581 11.875 7.25272 11.875 7.75C11.875 8.24728 11.6775 8.72419 11.3258 9.07583C10.9742 9.42746 10.4973 9.625 10 9.625ZM6.64525 13.75C6.73617 12.9238 7.12876 12.1602 7.74781 11.6055C8.36686 11.0509 9.16881 10.7442 10 10.7442C10.8312 10.7442 11.6331 11.0509 12.2522 11.6055C12.8712 12.1602 13.2638 12.9238 13.3547 13.75H6.64525Z" fill="#99A0AE"/>
</svg>
