<svg width="25" height="24" viewBox="0 0 25 24" fill="none" xmlns="http://www.w3.org/2000/svg">
<path d="M18.8 21H6.2C5.48392 21 4.79716 20.7155 4.29081 20.2092C3.78446 19.7028 3.5 19.0161 3.5 18.3V3.9C3.5 3.66131 3.59482 3.43239 3.7636 3.2636C3.93239 3.09482 4.16131 3 4.4 3H17C17.2387 3 17.4676 3.09482 17.6364 3.2636C17.8052 3.43239 17.9 3.66131 17.9 3.9V14.7H21.5V18.3C21.5 19.0161 21.2155 19.7028 20.7092 20.2092C20.2028 20.7155 19.5161 21 18.8 21ZM17.9 16.5V18.3C17.9 18.5387 17.9948 18.7676 18.1636 18.9364C18.3324 19.1052 18.5613 19.2 18.8 19.2C19.0387 19.2 19.2676 19.1052 19.4364 18.9364C19.6052 18.7676 19.7 18.5387 19.7 18.3V16.5H17.9ZM16.1 19.2V4.8H5.3V18.3C5.3 18.5387 5.39482 18.7676 5.5636 18.9364C5.73239 19.1052 5.96131 19.2 6.2 19.2H16.1ZM7.1 7.5H14.3V9.3H7.1V7.5ZM7.1 11.1H14.3V12.9H7.1V11.1ZM7.1 14.7H11.6V16.5H7.1V14.7Z" fill="white"/>
</svg>
