<svg width="24" height="24" viewBox="0 0 24 24" fill="none" xmlns="http://www.w3.org/2000/svg">
<path d="M5.7001 9.3C5.93879 9.3 6.16771 9.39482 6.33649 9.5636C6.50528 9.73239 6.6001 9.96131 6.6001 10.2C8.01412 10.1979 9.38738 10.6736 10.4971 11.55H12.4501C13.6498 11.55 14.7271 12.072 15.4687 12.9H18.3001C19.1508 12.8998 19.9842 13.1407 20.7036 13.5948C21.423 14.049 21.9989 14.6978 22.3645 15.4659C20.236 18.2748 16.7899 20.1 12.9001 20.1C10.3891 20.1 8.2651 19.5573 6.5461 18.6078C6.48314 18.7816 6.36811 18.9317 6.21671 19.0376C6.06531 19.1436 5.88491 19.2003 5.7001 19.2H3.0001C2.7614 19.2 2.53248 19.1052 2.3637 18.9364C2.19492 18.7676 2.1001 18.5387 2.1001 18.3V10.2C2.1001 9.96131 2.19492 9.73239 2.3637 9.5636C2.53248 9.39482 2.7614 9.3 3.0001 9.3H5.7001ZM6.601 12L6.6001 16.5198L6.6406 16.5486C8.2561 17.6826 10.3603 18.3 12.9001 18.3C15.6037 18.3 18.1192 17.2596 19.9516 15.483L20.0713 15.3633L19.9633 15.2733C19.5383 14.9405 19.0232 14.7429 18.4846 14.7063L18.3001 14.7H16.4002C16.465 14.9898 16.5001 15.2904 16.5001 15.6V16.5H8.4001V14.7L14.5111 14.6991L14.4805 14.6289C14.308 14.2685 14.0427 13.9605 13.7118 13.7365C13.3809 13.5125 12.9964 13.3807 12.5977 13.3545L12.4501 13.35H9.8131C9.39488 12.9223 8.89534 12.5825 8.34387 12.3506C7.79239 12.1188 7.20012 11.9996 6.6019 12H6.601ZM4.8001 11.1H3.9001V17.4H4.8001V11.1ZM17.4001 5.7C18.1162 5.7 18.8029 5.98446 19.3093 6.49081C19.8156 6.99716 20.1001 7.68392 20.1001 8.4C20.1001 9.11608 19.8156 9.80284 19.3093 10.3092C18.8029 10.8155 18.1162 11.1 17.4001 11.1C16.684 11.1 15.9973 10.8155 15.4909 10.3092C14.9846 9.80284 14.7001 9.11608 14.7001 8.4C14.7001 7.68392 14.9846 6.99716 15.4909 6.49081C15.9973 5.98446 16.684 5.7 17.4001 5.7ZM17.4001 7.5C17.1614 7.5 16.9325 7.59482 16.7637 7.7636C16.5949 7.93239 16.5001 8.16131 16.5001 8.4C16.5001 8.6387 16.5949 8.86761 16.7637 9.0364C16.9325 9.20518 17.1614 9.3 17.4001 9.3C17.6388 9.3 17.8677 9.20518 18.0365 9.0364C18.2053 8.86761 18.3001 8.6387 18.3001 8.4C18.3001 8.16131 18.2053 7.93239 18.0365 7.7636C17.8677 7.59482 17.6388 7.5 17.4001 7.5ZM11.1001 3C11.8162 3 12.5029 3.28446 13.0093 3.79081C13.5156 4.29716 13.8001 4.98392 13.8001 5.7C13.8001 6.41608 13.5156 7.10284 13.0093 7.60919C12.5029 8.11554 11.8162 8.4 11.1001 8.4C10.384 8.4 9.69726 8.11554 9.19091 7.60919C8.68456 7.10284 8.4001 6.41608 8.4001 5.7C8.4001 4.98392 8.68456 4.29716 9.19091 3.79081C9.69726 3.28446 10.384 3 11.1001 3ZM11.1001 4.8C10.8614 4.8 10.6325 4.89482 10.4637 5.0636C10.2949 5.23239 10.2001 5.46131 10.2001 5.7C10.2001 5.93869 10.2949 6.16761 10.4637 6.3364C10.6325 6.50518 10.8614 6.6 11.1001 6.6C11.3388 6.6 11.5677 6.50518 11.7365 6.3364C11.9053 6.16761 12.0001 5.93869 12.0001 5.7C12.0001 5.46131 11.9053 5.23239 11.7365 5.0636C11.5677 4.89482 11.3388 4.8 11.1001 4.8Z" fill="#99A0AE"/>
</svg>
