<svg width="29" height="29" viewBox="0 0 29 29" fill="none" xmlns="http://www.w3.org/2000/svg">
<path d="M22.9 22.9001C22.9 23.1786 22.7893 23.4457 22.5924 23.6426C22.3955 23.8395 22.1284 23.9501 21.85 23.9501H7.14995C6.87147 23.9501 6.6044 23.8395 6.40749 23.6426C6.21058 23.4457 6.09995 23.1786 6.09995 22.9001V13.4501H2.94995L13.7933 3.59271C13.9866 3.41681 14.2386 3.31934 14.5 3.31934C14.7613 3.31934 15.0133 3.41681 15.2066 3.59271L26.0499 13.4501H22.9V22.9001ZM9.77495 15.5501C9.77495 16.8033 10.2728 18.0051 11.1589 18.8912C12.045 19.7773 13.2468 20.2751 14.5 20.2751C15.7531 20.2751 16.9549 19.7773 17.841 18.8912C18.7271 18.0051 19.225 16.8033 19.225 15.5501H17.125C17.125 16.2463 16.8484 16.914 16.3561 17.4063C15.8638 17.8985 15.1961 18.1751 14.5 18.1751C13.8038 18.1751 13.1361 17.8985 12.6438 17.4063C12.1515 16.914 11.875 16.2463 11.875 15.5501H9.77495Z" fill="#1FC16B"/>
</svg>
