<svg width="24" height="24" viewBox="0 0 24 24" fill="none" xmlns="http://www.w3.org/2000/svg">
<path d="M6.60002 8.39998V7.49998C6.60002 6.06781 7.16895 4.6943 8.18165 3.6816C9.19434 2.6689 10.5679 2.09998 12 2.09998C13.4322 2.09998 14.8057 2.6689 15.8184 3.6816C16.8311 4.6943 17.4 6.06781 17.4 7.49998V8.39998H19.2C19.4387 8.39998 19.6676 8.4948 19.8364 8.66358C20.0052 8.83236 20.1 9.06128 20.1 9.29998V20.1C20.1 20.3387 20.0052 20.5676 19.8364 20.7364C19.6676 20.9052 19.4387 21 19.2 21H4.80002C4.56133 21 4.33241 20.9052 4.16363 20.7364C3.99485 20.5676 3.90002 20.3387 3.90002 20.1V9.29998C3.90002 9.06128 3.99485 8.83236 4.16363 8.66358C4.33241 8.4948 4.56133 8.39998 4.80002 8.39998H6.60002ZM18.3 10.2H5.70002V19.2H18.3V10.2ZM11.1 15.3588C10.7569 15.1607 10.4887 14.8548 10.337 14.4888C10.1854 14.1227 10.1588 13.7168 10.2614 13.3341C10.3639 12.9513 10.5899 12.6131 10.9043 12.3719C11.2186 12.1307 11.6038 11.9999 12 11.9999C12.3963 11.9999 12.7814 12.1307 13.0958 12.3719C13.4102 12.6131 13.6361 12.9513 13.7387 13.3341C13.8412 13.7168 13.8146 14.1227 13.663 14.4888C13.5114 14.8548 13.2432 15.1607 12.9 15.3588V17.4H11.1V15.3588ZM8.40002 8.39998H15.6V7.49998C15.6 6.5452 15.2207 5.62952 14.5456 4.95439C13.8705 4.27926 12.9548 3.89998 12 3.89998C11.0452 3.89998 10.1296 4.27926 9.45444 4.95439C8.77931 5.62952 8.40002 6.5452 8.40002 7.49998V8.39998Z" fill="#99A0AE"/>
</svg>
