<svg width="24" height="24" viewBox="0 0 24 24" fill="none" xmlns="http://www.w3.org/2000/svg">
<path d="M12 20.0099L16.455 15.5549C17.336 14.6738 17.936 13.5513 18.179 12.3292C18.4221 11.1072 18.2973 9.84047 17.8204 8.68933C17.3436 7.53819 16.5361 6.55431 15.5001 5.86208C14.464 5.16986 13.246 4.80038 12 4.80038C10.754 4.80038 9.53602 5.16986 8.5 5.86208C7.46399 6.55431 6.6565 7.53819 6.17965 8.68933C5.7028 9.84047 5.578 11.1072 5.82103 12.3292C6.06407 13.5513 6.66402 14.6738 7.54503 15.5549L12 20.0099ZM12 22.5551L6.27243 16.8275C5.13963 15.6947 4.36819 14.2514 4.05566 12.6802C3.74313 11.109 3.90354 9.48032 4.51661 8.00024C5.12969 6.52017 6.16788 5.25512 7.49992 4.36509C8.83196 3.47505 10.398 3 12 3C13.6021 3 15.1681 3.47505 16.5001 4.36509C17.8322 5.25512 18.8704 6.52017 19.4834 8.00024C20.0965 9.48032 20.2569 11.109 19.9444 12.6802C19.6319 14.2514 18.8604 15.6947 17.7276 16.8275L12 22.5551ZM12 12.8999C12.4774 12.8999 12.9353 12.7103 13.2728 12.3727C13.6104 12.0352 13.8 11.5773 13.8 11.0999C13.8 10.6225 13.6104 10.1647 13.2728 9.82714C12.9353 9.48957 12.4774 9.29993 12 9.29993C11.5226 9.29993 11.0648 9.48957 10.7272 9.82714C10.3897 10.1647 10.2 10.6225 10.2 11.0999C10.2 11.5773 10.3897 12.0352 10.7272 12.3727C11.0648 12.7103 11.5226 12.8999 12 12.8999ZM12 14.6999C11.0452 14.6999 10.1296 14.3206 9.45444 13.6455C8.77931 12.9704 8.40003 12.0547 8.40003 11.0999C8.40003 10.1452 8.77931 9.22948 9.45444 8.55434C10.1296 7.87921 11.0452 7.49993 12 7.49993C12.9548 7.49993 13.8705 7.87921 14.5456 8.55434C15.2207 9.22948 15.6 10.1452 15.6 11.0999C15.6 12.0547 15.2207 12.9704 14.5456 13.6455C13.8705 14.3206 12.9548 14.6999 12 14.6999Z" fill="#99A0AE"/>
</svg>
