<svg width="29" height="29" viewBox="0 0 29 29" fill="none" xmlns="http://www.w3.org/2000/svg">
<path d="M8.6968 21.7679V22.1482C10.3086 23.373 12.3194 24.1 14.5 24.1C19.8021 24.1 24.1 19.8021 24.1 14.5C24.1 9.19791 19.8021 4.9 14.5 4.9C9.19791 4.9 4.9 9.19791 4.9 14.5C4.9 17.5384 6.31143 20.2471 8.51444 22.0061L7.07854 20.1044C6.04319 18.7331 5.40796 17.1018 5.24332 15.3915C5.07869 13.6812 5.39109 11.9587 6.14586 10.4152C6.90063 8.8716 8.06827 7.5673 9.51923 6.64698C10.9702 5.72666 12.6478 5.2263 14.3658 5.20141C16.0838 5.17652 17.7752 5.62806 19.2522 6.50596C20.7292 7.38385 21.9342 8.65377 22.7333 10.1748C23.5325 11.6959 23.8947 13.4086 23.7797 15.123C23.6647 16.8373 23.077 18.4863 22.0818 19.887L21.4642 20.7561L20.7111 20.0015C19.9183 19.2072 18.9765 18.5773 17.9397 18.148C16.9028 17.7188 15.7914 17.4985 14.6692 17.5L14.6668 17.5C13.5029 17.4984 12.351 17.7353 11.2821 18.1959C10.3204 18.6103 9.44421 19.198 8.6968 19.9287V20.3574C9.45007 19.5656 10.3538 18.9314 11.3556 18.4923C12.3998 18.0346 13.5278 17.7988 14.6679 17.8M8.6968 21.7679L14.5014 23.8C16.7903 23.7997 18.8872 22.9714 20.5068 21.6003L21.2437 20.9766L20.5699 20.2852C19.8021 19.4974 18.884 18.8715 17.8701 18.4447C16.8565 18.0179 15.7676 17.7987 14.6679 17.8M8.6968 21.7679L8.70165 21.7718C10.3475 23.0876 12.3928 23.803 14.5 23.8L8.6968 21.7679ZM14.6679 17.8C14.6683 17.8 14.6686 17.8 14.669 17.8L14.668 18.7L14.6668 17.8C14.6672 17.8 14.6675 17.8 14.6679 17.8ZM14.5 14.65C13.6248 14.65 12.7854 14.3023 12.1665 13.6835C11.5477 13.0646 11.2 12.2252 11.2 11.35C11.2 10.4748 11.5477 9.63542 12.1665 9.01655C12.7854 8.39768 13.6248 8.05 14.5 8.05C15.3752 8.05 16.2146 8.39768 16.8335 9.01655C17.4523 9.63542 17.8 10.4748 17.8 11.35C17.8 12.2252 17.4523 13.0646 16.8335 13.6835C16.2146 14.3023 15.3752 14.65 14.5 14.65ZM14.5 14.35C15.2956 14.35 16.0587 14.0339 16.6213 13.4713C17.1839 12.9087 17.5 12.1456 17.5 11.35C17.5 10.5543 17.1839 9.79129 16.6213 9.22868C16.0587 8.66607 15.2956 8.35 14.5 8.35C13.7043 8.35 12.9413 8.66607 12.3787 9.22868C11.8161 9.79129 11.5 10.5543 11.5 11.35C11.5 12.1456 11.8161 12.9087 12.3787 13.4713C12.9413 14.0339 13.7043 14.35 14.5 14.35Z" fill="#0E121B" stroke="#99A0AE" stroke-width="1.8"/>
</svg>
