<svg width="29" height="29" viewBox="0 0 29 29" fill="none" xmlns="http://www.w3.org/2000/svg">
<path d="M7.60962 17.4293L7.0503 17.952L7.47657 18.5879C9.14715 21.0801 11.7174 22.75 14.668 22.75C17.6173 22.75 20.1888 21.0814 21.8586 18.5875L22.2844 17.9517L21.7253 17.4293C19.8112 15.6403 17.2881 14.6467 14.6681 14.65C12.0477 14.6464 9.5241 15.64 7.60962 17.4293ZM14.5 4.9C19.7989 4.9 24.1 9.20106 24.1 14.5C24.1 19.7989 19.7989 24.1 14.5 24.1C9.20106 24.1 4.9 19.7989 4.9 14.5C4.9 9.20106 9.20106 4.9 14.5 4.9ZM14.5 14.35C15.5741 14.35 16.6043 13.9233 17.3638 13.1638C18.1233 12.4043 18.55 11.3741 18.55 10.3C18.55 9.22587 18.1233 8.19574 17.3638 7.43622C16.6043 6.6767 15.5741 6.25 14.5 6.25C13.4259 6.25 12.3957 6.6767 11.6362 7.43622C10.8767 8.19574 10.45 9.22587 10.45 10.3C10.45 11.3741 10.8767 12.4043 11.6362 13.1638C12.3957 13.9233 13.4259 14.35 14.5 14.35Z" fill="#1FC16B" stroke="#1FC16B" stroke-width="1.8"/>
</svg>
