<svg width="24" height="24" viewBox="0 0 24 24" fill="none" xmlns="http://www.w3.org/2000/svg">
<path d="M5.99699 4.14391C6.59732 3.92969 7.24852 3.90265 7.86455 4.06633C8.48058 4.23002 9.03245 4.57675 9.44727 5.0607C9.86209 5.54466 10.1203 6.14307 10.1879 6.77689C10.2554 7.4107 10.1291 8.0501 9.82559 8.61061L19.4637 18.2496L18.1911 19.5222L8.55209 9.88321C7.99145 10.1855 7.35238 10.3109 6.71909 10.2428C6.08579 10.1746 5.488 9.91624 5.00448 9.50162C4.52096 9.08699 4.17441 8.5356 4.0105 7.9201C3.84659 7.30461 3.87302 6.65389 4.08629 6.05371L6.09959 8.06701C6.22412 8.19595 6.37309 8.29879 6.53779 8.36955C6.7025 8.4403 6.87964 8.47754 7.0589 8.4791C7.23815 8.48065 7.41592 8.4465 7.58183 8.37862C7.74774 8.31074 7.89847 8.2105 8.02522 8.08374C8.15198 7.95699 8.25222 7.80626 8.3201 7.64035C8.38798 7.47444 8.42213 7.29667 8.42058 7.11742C8.41902 6.93817 8.38178 6.76102 8.31103 6.59631C8.24027 6.43161 8.13743 6.28264 8.00849 6.15811L5.99609 4.14301L5.99699 4.14391ZM15.3273 5.83951L18.1911 4.24831L19.4637 5.52091L17.8725 8.38471L16.2813 8.70331L14.3733 10.6122L13.0998 9.33961L15.0087 7.43071L15.3273 5.83951ZM9.28109 13.1583L10.5537 14.4309L5.78099 19.2036C5.61872 19.3663 5.40034 19.4608 5.17064 19.4677C4.94093 19.4746 4.71729 19.3933 4.54557 19.2406C4.37385 19.0879 4.26707 18.8752 4.2471 18.6463C4.22713 18.4174 4.2955 18.1895 4.43819 18.0093L4.50839 17.931L9.28109 13.1583Z" fill="#525866"/>
</svg>
