<svg width="24" height="24" viewBox="0 0 24 24" fill="none" xmlns="http://www.w3.org/2000/svg">
<path d="M12 16.5C15.2958 16.5 18.1785 17.9175 19.7463 20.0325L18.0885 20.8164C16.8123 19.3044 14.5623 18.3 12 18.3C9.43768 18.3 7.18768 19.3044 5.91148 20.8164L4.25458 20.0316C5.82238 17.9166 8.70418 16.5 12 16.5ZM12 3C13.1935 3 14.338 3.47411 15.182 4.31802C16.0259 5.16193 16.5 6.30653 16.5 7.5V10.2C16.4999 11.3596 16.0522 12.4744 15.2502 13.312C14.4482 14.1496 13.3538 14.6452 12.1953 14.6955L12 14.7C10.8065 14.7 9.66191 14.2259 8.818 13.382C7.97408 12.5381 7.49998 11.3935 7.49998 10.2V7.5C7.50004 6.34038 7.94776 5.22555 8.74977 4.388C9.55178 3.55045 10.6462 3.05483 11.8047 3.0045L12 3ZM12 4.8C11.3113 4.79996 10.6486 5.06309 10.1475 5.53556C9.64647 6.00802 9.34488 6.6541 9.30448 7.3416L9.29998 7.5V10.2C9.2993 10.9028 9.5727 11.5782 10.0621 12.0826C10.5514 12.5871 11.2182 12.8808 11.9207 12.9014C12.6233 12.9221 13.3061 12.6679 13.8243 12.1931C14.3424 11.7182 14.6549 11.06 14.6955 10.3584L14.7 10.2V7.5C14.7 6.78392 14.4155 6.09716 13.9092 5.59081C13.4028 5.08446 12.7161 4.8 12 4.8Z" fill="#99A0AE"/>
</svg>
